<svg width="20" height="20" viewBox="0 0 20 20" fill="none" xmlns="http://www.w3.org/2000/svg">
<path d="M10.1875 5.43945C12.7715 5.43945 14.9043 7.57227 14.9043 10.1562C14.9043 12.7812 12.7715 14.873 10.1875 14.873C7.5625 14.873 5.4707 12.7812 5.4707 10.1562C5.4707 7.57227 7.5625 5.43945 10.1875 5.43945ZM10.1875 13.2324C11.8691 13.2324 13.2227 11.8789 13.2227 10.1562C13.2227 8.47461 11.8691 7.12109 10.1875 7.12109C8.46484 7.12109 7.11133 8.47461 7.11133 10.1562C7.11133 11.8789 8.50586 13.2324 10.1875 13.2324ZM16.1758 5.27539C16.1758 5.89062 15.6836 6.38281 15.0684 6.38281C14.4531 6.38281 13.9609 5.89062 13.9609 5.27539C13.9609 4.66016 14.4531 4.16797 15.0684 4.16797C15.6836 4.16797 16.1758 4.66016 16.1758 5.27539ZM19.293 6.38281C19.375 7.90039 19.375 12.4531 19.293 13.9707C19.2109 15.4473 18.8828 16.7188 17.8164 17.8262C16.75 18.8926 15.4375 19.2207 13.9609 19.3027C12.4434 19.3848 7.89062 19.3848 6.37305 19.3027C4.89648 19.2207 3.625 18.8926 2.51758 17.8262C1.45117 16.7188 1.12305 15.4473 1.04102 13.9707C0.958984 12.4531 0.958984 7.90039 1.04102 6.38281C1.12305 4.90625 1.45117 3.59375 2.51758 2.52734C3.625 1.46094 4.89648 1.13281 6.37305 1.05078C7.89062 0.96875 12.4434 0.96875 13.9609 1.05078C15.4375 1.13281 16.75 1.46094 17.8164 2.52734C18.8828 3.59375 19.2109 4.90625 19.293 6.38281ZM17.3242 15.5703C17.8164 14.3809 17.6934 11.5098 17.6934 10.1562C17.6934 8.84375 17.8164 5.97266 17.3242 4.74219C16.9961 3.96289 16.3809 3.30664 15.6016 3.01953C14.3711 2.52734 11.5 2.65039 10.1875 2.65039C8.83398 2.65039 5.96289 2.52734 4.77344 3.01953C3.95312 3.34766 3.33789 3.96289 3.00977 4.74219C2.51758 5.97266 2.64062 8.84375 2.64062 10.1562C2.64062 11.5098 2.51758 14.3809 3.00977 15.5703C3.33789 16.3906 3.95312 17.0059 4.77344 17.334C5.96289 17.8262 8.83398 17.7031 10.1875 17.7031C11.5 17.7031 14.3711 17.8262 15.6016 17.334C16.3809 17.0059 17.0371 16.3906 17.3242 15.5703Z" fill="white"/>
</svg>
