<svg width="21" height="18" viewBox="0 0 21 18" fill="none" xmlns="http://www.w3.org/2000/svg">
<path d="M18.8262 4.89062C18.8262 5.0957 18.8262 5.25977 18.8262 5.46484C18.8262 11.166 14.5195 17.6875 6.60352 17.6875C4.14258 17.6875 1.88672 16.9902 0 15.7598C0.328125 15.8008 0.65625 15.8418 1.02539 15.8418C3.03516 15.8418 4.88086 15.1445 6.35742 13.9961C4.4707 13.9551 2.87109 12.7246 2.33789 11.002C2.625 11.043 2.87109 11.084 3.1582 11.084C3.52734 11.084 3.9375 11.002 4.26562 10.9199C2.29688 10.5098 0.820312 8.78711 0.820312 6.69531V6.6543C1.39453 6.98242 2.0918 7.14648 2.78906 7.1875C1.59961 6.4082 0.861328 5.0957 0.861328 3.61914C0.861328 2.79883 1.06641 2.06055 1.43555 1.44531C3.56836 4.0293 6.76758 5.75195 10.3359 5.95703C10.2539 5.62891 10.2129 5.30078 10.2129 4.97266C10.2129 2.59375 12.1406 0.666016 14.5195 0.666016C15.75 0.666016 16.8574 1.1582 17.6777 2.01953C18.6211 1.81445 19.5645 1.44531 20.3848 0.953125C20.0566 1.97852 19.4004 2.79883 18.498 3.33203C19.3594 3.25 20.2207 3.00391 20.959 2.67578C20.3848 3.53711 19.6465 4.27539 18.8262 4.89062Z" fill="white"/>
</svg>
