<svg width="24" height="17" viewBox="0 0 24 17" fill="none" xmlns="http://www.w3.org/2000/svg">
<path d="M22.8926 2.7832C23.3848 4.50586 23.3848 8.19727 23.3848 8.19727C23.3848 8.19727 23.3848 11.8477 22.8926 13.6113C22.6465 14.5957 21.8672 15.334 20.9238 15.5801C19.1602 16.0312 12.1875 16.0312 12.1875 16.0312C12.1875 16.0312 5.17383 16.0312 3.41016 15.5801C2.4668 15.334 1.6875 14.5957 1.44141 13.6113C0.949219 11.8477 0.949219 8.19727 0.949219 8.19727C0.949219 8.19727 0.949219 4.50586 1.44141 2.7832C1.6875 1.79883 2.4668 1.01953 3.41016 0.773438C5.17383 0.28125 12.1875 0.28125 12.1875 0.28125C12.1875 0.28125 19.1602 0.28125 20.9238 0.773438C21.8672 1.01953 22.6465 1.79883 22.8926 2.7832ZM9.89062 11.5195L15.7148 8.19727L9.89062 4.875V11.5195Z" fill="white"/>
</svg>
