<svg width="190" height="37" viewBox="0 0 190 37" fill="none" xmlns="http://www.w3.org/2000/svg">
    <path d="M0.0500001 0.999998H8.15C10.8833 0.999998 12.9333 1.73333 14.3 3.2C15.6667 4.66666 16.35 6.81666 16.35 9.65V13.1C16.35 15.9333 15.6667 18.0833 14.3 19.55C12.9333 21.0167 10.8833 21.75 8.15 21.75H5.55V36H0.0500001V0.999998ZM8.15 16.75C9.05 16.75 9.71667 16.5 10.15 16C10.6167 15.5 10.85 14.65 10.85 13.45V9.3C10.85 8.1 10.6167 7.25 10.15 6.75C9.71667 6.25 9.05 6 8.15 6H5.55V16.75H8.15ZM19.3371 0.999998H34.3371V6H24.8371V15.25H32.3871V20.25H24.8371V31H34.3371V36H19.3371V0.999998ZM44.7488 36.5C42.0822 36.5 40.0655 35.75 38.6988 34.25C37.3322 32.7167 36.6488 30.5333 36.6488 27.7V25.7H41.8488V28.1C41.8488 30.3667 42.7988 31.5 44.6988 31.5C45.6322 31.5 46.3322 31.2333 46.7988 30.7C47.2988 30.1333 47.5488 29.2333 47.5488 28C47.5488 26.5333 47.2155 25.25 46.5488 24.15C45.8822 23.0167 44.6488 21.6667 42.8488 20.1C40.5822 18.1 38.9988 16.3 38.0988 14.7C37.1988 13.0667 36.7488 11.2333 36.7488 9.2C36.7488 6.43333 37.4488 4.3 38.8488 2.8C40.2488 1.26666 42.2822 0.499998 44.9488 0.499998C47.5822 0.499998 49.5655 1.26666 50.8988 2.8C52.2655 4.3 52.9488 6.46667 52.9488 9.3V10.75H47.7488V8.95C47.7488 7.75 47.5155 6.88333 47.0488 6.35C46.5822 5.78333 45.8988 5.5 44.9988 5.5C43.1655 5.5 42.2488 6.61667 42.2488 8.85C42.2488 10.1167 42.5822 11.3 43.2488 12.4C43.9488 13.5 45.1988 14.8333 46.9988 16.4C49.2988 18.4 50.8822 20.2167 51.7488 21.85C52.6155 23.4833 53.0488 25.4 53.0488 27.6C53.0488 30.4667 52.3322 32.6667 50.8988 34.2C49.4988 35.7333 47.4488 36.5 44.7488 36.5ZM56.2023 0.999998H64.6023C67.3357 0.999998 69.3857 1.73333 70.7523 3.2C72.119 4.66666 72.8023 6.81666 72.8023 9.65V27.35C72.8023 30.1833 72.119 32.3333 70.7523 33.8C69.3857 35.2667 67.3357 36 64.6023 36H56.2023V0.999998ZM64.5023 31C65.4023 31 66.0857 30.7333 66.5523 30.2C67.0523 29.6667 67.3023 28.8 67.3023 27.6V9.4C67.3023 8.2 67.0523 7.33333 66.5523 6.8C66.0857 6.26667 65.4023 6 64.5023 6H61.7023V31H64.5023ZM80.6672 0.999998H88.1172L93.8172 36H88.3172L87.3172 29.05V29.15H81.0672L80.0672 36H74.9672L80.6672 0.999998ZM86.6672 24.4L84.2172 7.1H84.1172L81.7172 24.4H86.6672ZM96.4855 0.999998H104.786C107.619 0.999998 109.686 1.66666 110.986 3C112.286 4.3 112.936 6.31666 112.936 9.05V10.45C112.936 12.25 112.636 13.7167 112.036 14.85C111.469 15.9833 110.586 16.8 109.386 17.3V17.4C112.119 18.3333 113.486 20.7667 113.486 24.7V27.7C113.486 30.4 112.769 32.4667 111.336 33.9C109.936 35.3 107.869 36 105.136 36H96.4855V0.999998ZM104.136 15.25C105.236 15.25 106.052 14.9667 106.586 14.4C107.152 13.8333 107.436 12.8833 107.436 11.55V9.6C107.436 8.33333 107.202 7.41667 106.736 6.85C106.302 6.28333 105.602 6 104.636 6H101.986V15.25H104.136ZM105.136 31C106.102 31 106.819 30.75 107.286 30.25C107.752 29.7167 107.986 28.8167 107.986 27.55V24.5C107.986 22.9 107.702 21.8 107.136 21.2C106.602 20.5667 105.702 20.25 104.436 20.25H101.986V31H105.136ZM124.65 36.5C121.95 36.5 119.884 35.7333 118.45 34.2C117.017 32.6667 116.3 30.5 116.3 27.7V9.3C116.3 6.5 117.017 4.33333 118.45 2.8C119.884 1.26666 121.95 0.499998 124.65 0.499998C127.35 0.499998 129.417 1.26666 130.85 2.8C132.284 4.33333 133 6.5 133 9.3V27.7C133 30.5 132.284 32.6667 130.85 34.2C129.417 35.7333 127.35 36.5 124.65 36.5ZM124.65 31.5C126.55 31.5 127.5 30.35 127.5 28.05V8.95C127.5 6.65 126.55 5.5 124.65 5.5C122.75 5.5 121.8 6.65 121.8 8.95V28.05C121.8 30.35 122.75 31.5 124.65 31.5ZM136.72 0.999998H142.22V31H151.27V36H136.72V0.999998ZM153.907 0.999998H159.407V36H153.907V0.999998ZM163.527 0.999998H169.027V15.75L176.027 0.999998H181.527L174.977 13.85L181.627 36H175.877L171.227 20.4L169.027 24.85V36H163.527V0.999998ZM184.23 0.999998H189.73V36H184.23V0.999998Z"
          fill="#5E5BFB"/>
</svg>
