<svg width="197" height="87" viewBox="0 0 197 87" fill="none" xmlns="http://www.w3.org/2000/svg">
<path d="M38.1058 68.76L38.4118 70.362H34.2178V81H32.1658V70.362H28.3138V68.76H38.1058ZM41.8148 74.898L41.5088 73.314C41.8448 73.038 42.1988 72.804 42.5708 72.612C42.9548 72.408 43.3448 72.252 43.7408 72.144C44.1368 72.036 44.5148 71.982 44.8748 71.982C45.5948 71.982 46.1588 72.132 46.5668 72.432C46.9868 72.732 47.2868 73.14 47.4668 73.656C47.6588 74.16 47.7548 74.736 47.7548 75.384V81H45.7388V75.51C45.7388 74.934 45.6308 74.484 45.4148 74.16C45.1988 73.836 44.8508 73.674 44.3708 73.674C44.0828 73.674 43.7828 73.734 43.4708 73.854C43.1708 73.974 42.8828 74.13 42.6068 74.322C42.3308 74.514 42.0668 74.706 41.8148 74.898ZM41.8148 81H39.8168V68.49L41.8148 68.292V81ZM57.4114 77.166H51.3634C51.4234 77.634 51.5494 78.042 51.7414 78.39C51.9454 78.738 52.2394 79.014 52.6234 79.218C53.0194 79.41 53.5294 79.506 54.1534 79.506C54.6574 79.506 55.1014 79.434 55.4854 79.29C55.8814 79.146 56.2954 78.96 56.7274 78.732L57.3394 80.208C57.0634 80.388 56.7634 80.562 56.4394 80.73C56.1154 80.886 55.7614 81.006 55.3774 81.09C54.9934 81.174 54.5734 81.216 54.1174 81.216C53.0494 81.216 52.1494 81.03 51.4174 80.658C50.6854 80.274 50.1394 79.74 49.7794 79.056C49.4194 78.36 49.2394 77.556 49.2394 76.644C49.2394 75.72 49.4074 74.916 49.7434 74.232C50.0914 73.536 50.5834 72.996 51.2194 72.612C51.8674 72.228 52.6354 72.036 53.5234 72.036C54.4234 72.036 55.1614 72.252 55.7374 72.684C56.3134 73.116 56.7334 73.686 56.9974 74.394C57.2734 75.102 57.4114 75.882 57.4114 76.734V77.166ZM51.3994 75.798H55.4674C55.3954 75.366 55.2694 75 55.0894 74.7C54.9214 74.4 54.6994 74.172 54.4234 74.016C54.1594 73.848 53.8354 73.764 53.4514 73.764C53.0794 73.764 52.7434 73.848 52.4434 74.016C52.1554 74.172 51.9214 74.4 51.7414 74.7C51.5734 75 51.4594 75.366 51.3994 75.798ZM70.8093 72.27V81.594C70.8093 82.326 70.6293 82.956 70.2693 83.484C69.9213 84.012 69.4173 84.42 68.7573 84.708C68.1093 84.996 67.3293 85.14 66.4173 85.14C66.2373 85.14 65.9973 85.122 65.6973 85.086C65.4093 85.05 65.1033 84.99 64.7793 84.906C64.4673 84.834 64.1613 84.738 63.8613 84.618C63.5613 84.498 63.3033 84.36 63.0873 84.204L63.6993 82.764C64.1673 83.004 64.6053 83.184 65.0133 83.304C65.4213 83.436 65.8713 83.508 66.3633 83.52C67.0713 83.508 67.6473 83.334 68.0913 82.998C68.5473 82.662 68.7753 82.188 68.7753 81.576V73.782L69.7113 72.27H70.8093ZM69.2793 78.264L69.8913 79.632C69.6273 79.968 69.3213 80.256 68.9733 80.496C68.6253 80.736 68.2653 80.916 67.8933 81.036C67.5333 81.168 67.1853 81.234 66.8493 81.234C65.9493 81.234 65.1693 81.042 64.5093 80.658C63.8613 80.274 63.3633 79.74 63.0153 79.056C62.6673 78.36 62.4933 77.544 62.4933 76.608C62.4933 75.696 62.6673 74.898 63.0153 74.214C63.3753 73.53 63.8853 72.996 64.5453 72.612C65.2053 72.228 65.9853 72.036 66.8853 72.036C67.1973 72.036 67.5453 72.102 67.9293 72.234C68.3133 72.354 68.6793 72.534 69.0273 72.774C69.3873 73.014 69.6813 73.302 69.9093 73.638L69.3153 75.024C68.9193 74.568 68.5293 74.244 68.1453 74.052C67.7733 73.86 67.3593 73.764 66.9033 73.764C66.4113 73.764 65.9853 73.89 65.6253 74.142C65.2773 74.394 65.0133 74.736 64.8333 75.168C64.6533 75.588 64.5633 76.068 64.5633 76.608C64.5633 77.172 64.6533 77.67 64.8333 78.102C65.0133 78.534 65.2773 78.876 65.6253 79.128C65.9853 79.368 66.4053 79.488 66.8853 79.488C67.3533 79.488 67.7673 79.386 68.1273 79.182C68.4993 78.978 68.8833 78.672 69.2793 78.264ZM74.9985 81H72.9825V72.27H74.0625L74.7285 73.71C74.9685 73.506 75.2565 73.296 75.5925 73.08C75.9285 72.852 76.2765 72.66 76.6365 72.504C77.0085 72.348 77.3505 72.27 77.6625 72.27L78.0945 73.89C77.8065 73.89 77.4765 73.962 77.1045 74.106C76.7445 74.25 76.3785 74.436 76.0065 74.664C75.6465 74.892 75.3105 75.15 74.9985 75.438V81ZM86.9426 77.166H80.8946C80.9546 77.634 81.0806 78.042 81.2726 78.39C81.4766 78.738 81.7706 79.014 82.1546 79.218C82.5506 79.41 83.0606 79.506 83.6846 79.506C84.1886 79.506 84.6326 79.434 85.0166 79.29C85.4126 79.146 85.8266 78.96 86.2586 78.732L86.8706 80.208C86.5946 80.388 86.2946 80.562 85.9706 80.73C85.6466 80.886 85.2926 81.006 84.9086 81.09C84.5246 81.174 84.1046 81.216 83.6486 81.216C82.5806 81.216 81.6806 81.03 80.9486 80.658C80.2166 80.274 79.6706 79.74 79.3106 79.056C78.9506 78.36 78.7706 77.556 78.7706 76.644C78.7706 75.72 78.9386 74.916 79.2746 74.232C79.6226 73.536 80.1146 72.996 80.7506 72.612C81.3986 72.228 82.1666 72.036 83.0546 72.036C83.9546 72.036 84.6926 72.252 85.2686 72.684C85.8446 73.116 86.2646 73.686 86.5286 74.394C86.8046 75.102 86.9426 75.882 86.9426 76.734V77.166ZM80.9306 75.798H84.9986C84.9266 75.366 84.8006 75 84.6206 74.7C84.4526 74.4 84.2306 74.172 83.9546 74.016C83.6906 73.848 83.3666 73.764 82.9826 73.764C82.6106 73.764 82.2746 73.848 81.9746 74.016C81.6866 74.172 81.4526 74.4 81.2726 74.7C81.1046 75 80.9906 75.366 80.9306 75.798ZM89.9988 78.426C89.9988 78.63 90.0468 78.822 90.1428 79.002C90.2508 79.182 90.4008 79.332 90.5928 79.452C90.7848 79.56 91.0128 79.614 91.2768 79.614C91.6608 79.614 92.0328 79.524 92.3928 79.344C92.7528 79.164 93.0888 78.918 93.4008 78.606V77.04H91.4388C90.9828 77.04 90.6288 77.184 90.3768 77.472C90.1248 77.76 89.9988 78.078 89.9988 78.426ZM89.2608 74.466L88.7208 72.81C88.9488 72.654 89.2548 72.522 89.6388 72.414C90.0228 72.294 90.4128 72.204 90.8088 72.144C91.2048 72.072 91.5228 72.036 91.7628 72.036C92.4468 72.036 93.0648 72.174 93.6168 72.45C94.1688 72.714 94.6068 73.086 94.9308 73.566C95.2668 74.046 95.4348 74.58 95.4348 75.168V81H94.0668L93.7608 80.118C93.4488 80.418 93.0768 80.676 92.6448 80.892C92.2128 81.108 91.7688 81.216 91.3128 81.216C90.2688 81.216 89.4948 80.958 88.9908 80.442C88.4868 79.926 88.2348 79.254 88.2348 78.426C88.2348 77.55 88.5348 76.878 89.1348 76.41C89.7348 75.942 90.5148 75.702 91.4748 75.69H93.3828V75.636C93.3708 75.12 93.2448 74.7 93.0048 74.376C92.7648 74.04 92.3628 73.872 91.7988 73.872C91.3428 73.872 90.8868 73.938 90.4308 74.07C89.9868 74.19 89.5968 74.322 89.2608 74.466ZM101.43 72.342L102.042 73.872H99.8456V78.066C99.8456 78.51 99.9476 78.876 100.152 79.164C100.356 79.44 100.668 79.578 101.088 79.578C101.244 79.578 101.4 79.56 101.556 79.524C101.712 79.488 101.862 79.44 102.006 79.38L102.564 80.874C102.456 80.946 102.306 81.018 102.114 81.09C101.934 81.162 101.736 81.222 101.52 81.27C101.316 81.318 101.124 81.342 100.944 81.342C100.296 81.342 99.7436 81.228 99.2876 81C98.8316 80.772 98.4716 80.442 98.2076 80.01C97.9556 79.566 97.8296 79.026 97.8296 78.39V73.872H96.6236L96.6056 72.342H97.8296V70.2L99.8456 69.804V72.342H101.43ZM110.211 81H108.213V68.49L110.211 68.292V81ZM120.113 77.166H114.065C114.125 77.634 114.251 78.042 114.443 78.39C114.647 78.738 114.941 79.014 115.325 79.218C115.721 79.41 116.231 79.506 116.855 79.506C117.359 79.506 117.803 79.434 118.187 79.29C118.583 79.146 118.997 78.96 119.429 78.732L120.041 80.208C119.765 80.388 119.465 80.562 119.141 80.73C118.817 80.886 118.463 81.006 118.079 81.09C117.695 81.174 117.275 81.216 116.819 81.216C115.751 81.216 114.851 81.03 114.119 80.658C113.387 80.274 112.841 79.74 112.481 79.056C112.121 78.36 111.941 77.556 111.941 76.644C111.941 75.72 112.109 74.916 112.445 74.232C112.793 73.536 113.285 72.996 113.921 72.612C114.569 72.228 115.337 72.036 116.225 72.036C117.125 72.036 117.863 72.252 118.439 72.684C119.015 73.116 119.435 73.686 119.699 74.394C119.975 75.102 120.113 75.882 120.113 76.734V77.166ZM114.101 75.798H118.169C118.097 75.366 117.971 75 117.791 74.7C117.623 74.4 117.401 74.172 117.125 74.016C116.861 73.848 116.537 73.764 116.153 73.764C115.781 73.764 115.445 73.848 115.145 74.016C114.857 74.172 114.623 74.4 114.443 74.7C114.275 75 114.161 75.366 114.101 75.798ZM123.169 78.426C123.169 78.63 123.217 78.822 123.313 79.002C123.421 79.182 123.571 79.332 123.763 79.452C123.955 79.56 124.183 79.614 124.447 79.614C124.831 79.614 125.203 79.524 125.563 79.344C125.923 79.164 126.259 78.918 126.571 78.606V77.04H124.609C124.153 77.04 123.799 77.184 123.547 77.472C123.295 77.76 123.169 78.078 123.169 78.426ZM122.431 74.466L121.891 72.81C122.119 72.654 122.425 72.522 122.809 72.414C123.193 72.294 123.583 72.204 123.979 72.144C124.375 72.072 124.693 72.036 124.933 72.036C125.617 72.036 126.235 72.174 126.787 72.45C127.339 72.714 127.777 73.086 128.101 73.566C128.437 74.046 128.605 74.58 128.605 75.168V81H127.237L126.931 80.118C126.619 80.418 126.247 80.676 125.815 80.892C125.383 81.108 124.939 81.216 124.483 81.216C123.439 81.216 122.665 80.958 122.161 80.442C121.657 79.926 121.405 79.254 121.405 78.426C121.405 77.55 121.705 76.878 122.305 76.41C122.905 75.942 123.685 75.702 124.645 75.69H126.553V75.636C126.541 75.12 126.415 74.7 126.175 74.376C125.935 74.04 125.533 73.872 124.969 73.872C124.513 73.872 124.057 73.938 123.601 74.07C123.157 74.19 122.767 74.322 122.431 74.466ZM132.62 81H130.604V72.27H131.684L132.35 73.71C132.59 73.506 132.878 73.296 133.214 73.08C133.55 72.852 133.898 72.66 134.258 72.504C134.63 72.348 134.972 72.27 135.284 72.27L135.716 73.89C135.428 73.89 135.098 73.962 134.726 74.106C134.366 74.25 134 74.436 133.628 74.664C133.268 74.892 132.932 75.15 132.62 75.438V81ZM138.948 81H136.932V72.27H138.282L138.642 73.314C138.978 73.038 139.332 72.804 139.704 72.612C140.088 72.408 140.478 72.252 140.874 72.144C141.27 72.036 141.642 71.982 141.99 71.982C142.71 71.982 143.28 72.132 143.7 72.432C144.12 72.732 144.42 73.14 144.6 73.656C144.792 74.16 144.888 74.736 144.888 75.384V81H142.854V75.51C142.854 74.934 142.746 74.484 142.53 74.16C142.326 73.836 141.984 73.674 141.504 73.674C141.216 73.674 140.916 73.734 140.604 73.854C140.304 73.974 140.016 74.13 139.74 74.322C139.464 74.514 139.2 74.706 138.948 74.898V81ZM148.932 81H146.898V72.27H148.932V81ZM147.888 70.866C147.552 70.866 147.27 70.752 147.042 70.524C146.826 70.296 146.718 70.008 146.718 69.66C146.718 69.324 146.826 69.042 147.042 68.814C147.27 68.586 147.552 68.472 147.888 68.472C148.212 68.472 148.494 68.586 148.734 68.814C148.974 69.042 149.094 69.324 149.094 69.66C149.094 69.996 148.974 70.284 148.734 70.524C148.506 70.752 148.224 70.866 147.888 70.866ZM153.01 81H150.994V72.27H152.344L152.704 73.314C153.04 73.038 153.394 72.804 153.766 72.612C154.15 72.408 154.54 72.252 154.936 72.144C155.332 72.036 155.704 71.982 156.052 71.982C156.772 71.982 157.342 72.132 157.762 72.432C158.182 72.732 158.482 73.14 158.662 73.656C158.854 74.16 158.95 74.736 158.95 75.384V81H156.916V75.51C156.916 74.934 156.808 74.484 156.592 74.16C156.388 73.836 156.046 73.674 155.566 73.674C155.278 73.674 154.978 73.734 154.666 73.854C154.366 73.974 154.078 74.13 153.802 74.322C153.526 74.514 153.262 74.706 153.01 74.898V81ZM168.737 72.27V81.594C168.737 82.326 168.557 82.956 168.197 83.484C167.849 84.012 167.345 84.42 166.685 84.708C166.037 84.996 165.257 85.14 164.345 85.14C164.165 85.14 163.925 85.122 163.625 85.086C163.337 85.05 163.031 84.99 162.707 84.906C162.395 84.834 162.089 84.738 161.789 84.618C161.489 84.498 161.231 84.36 161.015 84.204L161.627 82.764C162.095 83.004 162.533 83.184 162.941 83.304C163.349 83.436 163.799 83.508 164.291 83.52C164.999 83.508 165.575 83.334 166.019 82.998C166.475 82.662 166.703 82.188 166.703 81.576V73.782L167.639 72.27H168.737ZM167.207 78.264L167.819 79.632C167.555 79.968 167.249 80.256 166.901 80.496C166.553 80.736 166.193 80.916 165.821 81.036C165.461 81.168 165.113 81.234 164.777 81.234C163.877 81.234 163.097 81.042 162.437 80.658C161.789 80.274 161.291 79.74 160.943 79.056C160.595 78.36 160.421 77.544 160.421 76.608C160.421 75.696 160.595 74.898 160.943 74.214C161.303 73.53 161.813 72.996 162.473 72.612C163.133 72.228 163.913 72.036 164.813 72.036C165.125 72.036 165.473 72.102 165.857 72.234C166.241 72.354 166.607 72.534 166.955 72.774C167.315 73.014 167.609 73.302 167.837 73.638L167.243 75.024C166.847 74.568 166.457 74.244 166.073 74.052C165.701 73.86 165.287 73.764 164.831 73.764C164.339 73.764 163.913 73.89 163.553 74.142C163.205 74.394 162.941 74.736 162.761 75.168C162.581 75.588 162.491 76.068 162.491 76.608C162.491 77.172 162.581 77.67 162.761 78.102C162.941 78.534 163.205 78.876 163.553 79.128C163.913 79.368 164.333 79.488 164.813 79.488C165.281 79.488 165.695 79.386 166.055 79.182C166.427 78.978 166.811 78.672 167.207 78.264Z" fill="white"/>
<path d="M2.05 16H10.15C12.8833 16 14.9333 16.7333 16.3 18.2C17.6667 19.6667 18.35 21.8167 18.35 24.65V28.1C18.35 30.9333 17.6667 33.0833 16.3 34.55C14.9333 36.0167 12.8833 36.75 10.15 36.75H7.55V51H2.05V16ZM10.15 31.75C11.05 31.75 11.7167 31.5 12.15 31C12.6167 30.5 12.85 29.65 12.85 28.45V24.3C12.85 23.1 12.6167 22.25 12.15 21.75C11.7167 21.25 11.05 21 10.15 21H7.55V31.75H10.15ZM21.3371 16H36.3371V21H26.8371V30.25H34.3871V35.25H26.8371V46H36.3371V51H21.3371V16ZM46.7488 51.5C44.0822 51.5 42.0655 50.75 40.6988 49.25C39.3322 47.7167 38.6488 45.5333 38.6488 42.7V40.7H43.8488V43.1C43.8488 45.3667 44.7988 46.5 46.6988 46.5C47.6322 46.5 48.3322 46.2333 48.7988 45.7C49.2988 45.1333 49.5488 44.2333 49.5488 43C49.5488 41.5333 49.2155 40.25 48.5488 39.15C47.8822 38.0167 46.6488 36.6667 44.8488 35.1C42.5822 33.1 40.9988 31.3 40.0988 29.7C39.1988 28.0667 38.7488 26.2333 38.7488 24.2C38.7488 21.4333 39.4488 19.3 40.8488 17.8C42.2488 16.2667 44.2822 15.5 46.9488 15.5C49.5822 15.5 51.5655 16.2667 52.8988 17.8C54.2655 19.3 54.9488 21.4667 54.9488 24.3V25.75H49.7488V23.95C49.7488 22.75 49.5155 21.8833 49.0488 21.35C48.5822 20.7833 47.8988 20.5 46.9988 20.5C45.1655 20.5 44.2488 21.6167 44.2488 23.85C44.2488 25.1167 44.5822 26.3 45.2488 27.4C45.9488 28.5 47.1988 29.8333 48.9988 31.4C51.2988 33.4 52.8822 35.2167 53.7488 36.85C54.6155 38.4833 55.0488 40.4 55.0488 42.6C55.0488 45.4667 54.3322 47.6667 52.8988 49.2C51.4988 50.7333 49.4488 51.5 46.7488 51.5ZM58.2023 16H66.6023C69.3357 16 71.3857 16.7333 72.7523 18.2C74.119 19.6667 74.8023 21.8167 74.8023 24.65V42.35C74.8023 45.1833 74.119 47.3333 72.7523 48.8C71.3857 50.2667 69.3357 51 66.6023 51H58.2023V16ZM66.5023 46C67.4023 46 68.0857 45.7333 68.5523 45.2C69.0523 44.6667 69.3023 43.8 69.3023 42.6V24.4C69.3023 23.2 69.0523 22.3333 68.5523 21.8C68.0857 21.2667 67.4023 21 66.5023 21H63.7023V46H66.5023ZM82.6672 16H90.1172L95.8172 51H90.3172L89.3172 44.05V44.15H83.0672L82.0672 51H76.9672L82.6672 16ZM88.6672 39.4L86.2172 22.1H86.1172L83.7172 39.4H88.6672ZM98.4855 16H106.786C109.619 16 111.686 16.6667 112.986 18C114.286 19.3 114.936 21.3167 114.936 24.05V25.45C114.936 27.25 114.636 28.7167 114.036 29.85C113.469 30.9833 112.586 31.8 111.386 32.3V32.4C114.119 33.3333 115.486 35.7667 115.486 39.7V42.7C115.486 45.4 114.769 47.4667 113.336 48.9C111.936 50.3 109.869 51 107.136 51H98.4855V16ZM106.136 30.25C107.236 30.25 108.052 29.9667 108.586 29.4C109.152 28.8333 109.436 27.8833 109.436 26.55V24.6C109.436 23.3333 109.202 22.4167 108.736 21.85C108.302 21.2833 107.602 21 106.636 21H103.986V30.25H106.136ZM107.136 46C108.102 46 108.819 45.75 109.286 45.25C109.752 44.7167 109.986 43.8167 109.986 42.55V39.5C109.986 37.9 109.702 36.8 109.136 36.2C108.602 35.5667 107.702 35.25 106.436 35.25H103.986V46H107.136ZM126.65 51.5C123.95 51.5 121.884 50.7333 120.45 49.2C119.017 47.6667 118.3 45.5 118.3 42.7V24.3C118.3 21.5 119.017 19.3333 120.45 17.8C121.884 16.2667 123.95 15.5 126.65 15.5C129.35 15.5 131.417 16.2667 132.85 17.8C134.284 19.3333 135 21.5 135 24.3V42.7C135 45.5 134.284 47.6667 132.85 49.2C131.417 50.7333 129.35 51.5 126.65 51.5ZM126.65 46.5C128.55 46.5 129.5 45.35 129.5 43.05V23.95C129.5 21.65 128.55 20.5 126.65 20.5C124.75 20.5 123.8 21.65 123.8 23.95V43.05C123.8 45.35 124.75 46.5 126.65 46.5ZM138.72 16H144.22V46H153.27V51H138.72V16ZM155.907 16H161.407V51H155.907V16ZM165.527 16H171.027V30.75L178.027 16H183.527L176.977 28.85L183.627 51H177.877L173.227 35.4L171.027 39.85V51H165.527V16ZM186.23 16H191.73V51H186.23V16Z" fill="white"/>
</svg>
