<svg width="50" height="50" viewBox="0 0 50 50" fill="none" xmlns="http://www.w3.org/2000/svg">
    <path d="M49.467 40.2671C48.5252 37.377 46.5174 34.7446 43.5057 32.4481C41.5689 30.9795 39.2413 29.7297 36.5938 28.7533C35.9808 28.5268 35.4478 28.2768 34.968 28.0112H34.9591C31.903 26.324 31.5476 24.129 31.5387 23.2542C33.4755 21.6372 35.0657 19.3798 36.0519 16.8333C36.7804 14.9508 37.1535 13.0136 37.1535 11.0842C37.1535 8.71739 36.656 6.67864 35.6787 5.03827C33.7687 1.78878 29.984 0 25 0C20.0071 0 16.2136 1.78878 14.3212 5.03046C13.3529 6.68645 12.8554 8.7252 12.8554 11.0764C12.8554 13.0058 13.2285 14.943 13.957 16.8255C14.9343 19.372 16.5334 21.6216 18.4701 23.2464C18.4613 24.1212 18.1059 26.324 15.0409 28.0112C14.57 28.269 14.0281 28.519 13.4151 28.7533C10.7587 29.7375 8.43106 30.9795 6.49431 32.4559C3.4737 34.768 1.46588 37.4004 0.533049 40.2828C0.177683 41.3998 0 42.6574 0 44.0322V49.2423C0 49.6641 0.382018 50 0.861763 50H49.1382C49.618 50 50 49.6641 50 49.2423V44.0322C50 42.6027 49.8223 41.3685 49.467 40.2671ZM15.8493 5.72567C17.8838 2.24965 21.9439 1.51539 25 1.51539C28.0473 1.51539 32.1073 2.24184 34.1329 5.72567C34.506 6.35838 34.7903 7.07702 35.0036 7.85034L30.215 5.17107C29.8952 4.99141 29.4776 5.01484 29.1933 5.23356C21.6684 10.8889 16.4001 8.62365 15.0053 7.8269C15.2097 7.0614 15.4851 6.35057 15.8493 5.72567ZM15.5917 16.3412C14.9254 14.6149 14.5878 12.8417 14.5878 11.0764C14.5878 10.4905 14.6322 9.92814 14.6944 9.38916C15.7338 9.86565 17.4396 10.4281 19.6695 10.4281C22.3792 10.4281 25.8529 9.59225 29.8241 6.74113L35.3589 9.84221C35.3945 10.2406 35.4211 10.6546 35.4211 11.0764C35.4211 12.8417 35.0835 14.6071 34.4172 16.3412C33.4844 18.7627 31.9652 20.8796 30.1173 22.3403C30.0462 22.3949 29.9751 22.4574 29.9041 22.5121C28.3227 23.7072 26.6258 24.3399 25 24.3399C23.3742 24.3399 21.6862 23.7072 20.0959 22.5121C18.1592 21.0514 16.5601 18.8564 15.5917 16.3412ZM20.0515 24.3868C21.6507 25.3476 23.3387 25.8631 25 25.8631C26.6613 25.8631 28.3493 25.3476 29.9485 24.3868C30.2239 25.6288 31.0323 27.3473 33.2445 28.808C31.6098 30.3468 28.4382 31.3389 25.0089 31.3389C21.5707 31.3389 18.3991 30.339 16.7733 28.808C18.9677 27.3395 19.7761 25.621 20.0515 24.3868ZM48.2765 48.4768H1.72353V44.0244C1.72353 42.7902 1.88344 41.6654 2.19439 40.689C3.03838 38.0956 4.86852 35.7132 7.63149 33.5963C9.42608 32.2293 11.6027 31.0655 14.0903 30.1515C14.5256 29.9875 14.9254 29.8157 15.2985 29.636C17.2175 31.6122 20.9133 32.8542 25.0089 32.8542C29.1045 32.8542 32.7914 31.6044 34.7193 29.636C35.0924 29.8157 35.4922 29.9875 35.9275 30.1515C38.4151 31.0733 40.5828 32.2293 42.3863 33.5963C45.1493 35.6975 46.9705 38.08 47.8234 40.689C48.1432 41.6497 48.2942 42.7433 48.2942 44.0244V48.4768H48.2765Z"
          fill="#5E5BFB"/>
</svg>
